<?xml version="1.0" encoding="UTF-8" standalone="no"?><!-- Generator: Gravit.io --><svg xmlns="http://www.w3.org/2000/svg" xmlns:xlink="http://www.w3.org/1999/xlink" style="isolation:isolate" viewBox="0 0 260 184.985" width="260pt" height="184.985pt"><defs><clipPath id="_clipPath_e4N08DCqLlIr6ZXsoJf2dTIEbf0ty6F8"><rect width="260" height="184.985"/></clipPath></defs><g clip-path="url(#_clipPath_e4N08DCqLlIr6ZXsoJf2dTIEbf0ty6F8)"><clipPath id="_clipPath_P13Cc3fErfJfHZsPnIeEF8cxBKz1x9Qm"><rect x="33.97" y="0" width="192.06" height="184.985" transform="matrix(1,0,0,1,0,0)" fill="rgb(255,255,255)"/></clipPath><g clip-path="url(#_clipPath_P13Cc3fErfJfHZsPnIeEF8cxBKz1x9Qm)"><g><path d=" M 222.83 73.213 L 222.56 72.523 L 196.42 4.303 C 195.888 2.966 194.947 1.831 193.73 1.063 C 191.237 -0.485 188.043 -0.313 185.73 1.493 C 184.614 2.4 183.803 3.629 183.41 5.013 L 165.76 59.013 L 94.29 59.013 L 76.64 5.013 C 76.257 3.621 75.446 2.386 74.32 1.483 C 72.007 -0.323 68.813 -0.495 66.32 1.053 C 65.106 1.825 64.166 2.958 63.63 4.293 L 37.44 72.483 L 37.18 73.173 C 29.45 93.371 36.015 116.248 53.28 129.273 L 53.37 129.343 L 53.61 129.513 L 93.43 159.333 L 113.13 174.243 L 125.13 183.303 C 128.015 185.493 132.005 185.493 134.89 183.303 L 146.89 174.243 L 166.59 159.333 L 206.65 129.333 L 206.75 129.253 C 223.975 116.227 230.528 93.39 222.83 73.213 L 222.83 73.213 Z " fill="rgb(226,67,41)"/><path d=" M 222.83 73.213 L 222.56 72.523 C 209.823 75.137 197.821 80.532 187.41 88.323 L 130 131.733 C 149.55 146.523 166.57 159.373 166.57 159.373 L 206.63 129.373 L 206.73 129.293 C 223.981 116.266 230.544 93.406 222.83 73.213 L 222.83 73.213 Z " fill="rgb(252,109,38)"/><path d=" M 93.43 159.373 L 113.13 174.283 L 125.13 183.343 C 128.015 185.533 132.005 185.533 134.89 183.343 L 146.89 174.283 L 166.59 159.373 C 166.59 159.373 149.55 146.483 130 131.733 C 110.45 146.483 93.43 159.373 93.43 159.373 Z " fill="rgb(252,163,38)"/><path d=" M 72.58 88.323 C 62.178 80.516 50.178 75.107 37.44 72.483 L 37.18 73.173 C 29.45 93.371 36.015 116.248 53.28 129.273 L 53.37 129.343 L 53.61 129.513 L 93.43 159.333 C 93.43 159.333 110.43 146.483 130 131.693 L 72.58 88.323 Z " fill="rgb(252,109,38)"/></g></g></g></svg>